# xmcd
#
# Track frame offsets:
#	150
#	11106
#	24449
#	38965
#	49279
#	63027
#	74638
#	84790
#	94743
#	103215
#	113397
#	127243
#	140161
#	151551
#	162834
#	173385
#	184343
#	196967
#	208881
#	218587
#	235898
#	246373
#	258133
#	276864
#	292776
#	303757
#	315598
#
# Disc length: 4336 seconds
# Revision: 0
# Processed by: cddbd v1.5.2PL0 Copyright (c) Steve Scherf et al.
# Submitted via: dBpowerAMP V12.0
#
DISCID=7510ee1b
DTITLE=Sugar Pie DeSanto - A Little Bit Of Soul 1957 - 1962  
DYEAR=2017
DGENRE=Soul/Blues/R&B
TTITLE0=Just A Few Little Words
TTITLE1=Lets Get Together
TTITLE2=If You Take Away Our Love
TTITLE3=Beautiful Love
TTITLE4=Stop Crying
TTITLE5=If I Had A Wishing Well
TTITLE6=Darling Be Mine
TTITLE7=One Two Let's Rock
TTITLE8=Nickle And A Dime
TTITLE9=Flippin And Floppin
TTITLE10=I Want To Know
TTITLE11=Baby It Ain't Right
TTITLE12=Wish You Were Mine
TTITLE13=Going Back Where I Belong
TTITLE14=A Little Taste Of Soul
TTITLE15=Strange Feeling
TTITLE16=Can't Let You Go
TTITLE17=It's Done And Forgotten
TTITLE18=It Won't Be Long
TTITLE19=Maybe You'll Be There
TTITLE20=I Don't Feel Sorry
TTITLE21=Tell Me What's The Matter
TTITLE22=The Twelfth Of Never
TTITLE23=It's Not For Me To Say
TTITLE24=I Still Care
TTITLE25=Ask Me
TTITLE26=Open Your Heart
EXTD=
EXTT0=
EXTT1=
EXTT2=
EXTT3=
EXTT4=
EXTT5=
EXTT6=
EXTT7=
EXTT8=
EXTT9=
EXTT10=
EXTT11=
EXTT12=
EXTT13=
EXTT14=
EXTT15=
EXTT16=
EXTT17=
EXTT18=
EXTT19=
EXTT20=
EXTT21=
EXTT22=
EXTT23=
EXTT24=
EXTT25=
EXTT26=
PLAYORDER=
